<?xml version="1.0" encoding="UTF-8"?>
<svg width="512" height="512" viewBox="0 0 512 512" fill="none" xmlns="http://www.w3.org/2000/svg">
  <rect width="512" height="512" rx="64" fill="#0F1214"/>
  <g filter="url(#shadow)">
    <circle cx="256" cy="256" r="160" fill="#3FA39A" fill-opacity="0.15" stroke="#3FA39A" stroke-opacity="0.35" stroke-width="4"/>
  </g>
  <g>
    <path d="M140 260C140 197 191 146 254 146C300 146 339 170 359 206L319 226C306 204 282 190 254 190C214 190 182 222 182 262C182 302 214 334 254 334C282 334 306 320 319 298L359 318C339 354 300 378 254 378C191 378 140 327 140 264V260Z" fill="#F7F5EF"/>
    <rect x="360" y="200" width="12" height="160" rx="6" fill="#C5723A"/>
  </g>
  <defs>
    <filter id="shadow" x="76" y="76" width="360" height="360" filterUnits="userSpaceOnUse" color-interpolation-filters="sRGB">
      <feFlood flood-opacity="0" result="BackgroundImageFix"/>
      <feColorMatrix in="SourceAlpha" type="matrix" values="0 0 0 0 0 0 0 0 0 0 0 0 0 0 0 0 0 0 127 0" result="hardAlpha"/>
      <feOffset dy="4"/>
      <feGaussianBlur stdDeviation="12"/>
      <feComposite in2="hardAlpha" operator="out"/>
      <feColorMatrix type="matrix" values="0 0 0 0 0.247 0 0 0 0 0.639 0 0 0 0 0.604 0 0 0 0.35 0"/>
      <feBlend mode="normal" in2="BackgroundImageFix" result="effect1_dropShadow"/>
      <feBlend mode="normal" in="SourceGraphic" in2="effect1_dropShadow" result="shape"/>
    </filter>
  </defs>
</svg>
